<?xml version="1.0" encoding="UTF-8" standalone="no"?>
<!DOCTYPE svg PUBLIC "-//W3C//DTD SVG 20010904//EN"
              "http://www.w3.org/TR/2001/REC-SVG-20010904/DTD/svg10.dtd">

<svg xmlns="http://www.w3.org/2000/svg"
     width="2.84444in" height="2.84444in"
     viewBox="0 0 256 256">
  <path id="Selection"
        fill="none" stroke="black" stroke-width="1"
        d="M 114.61,31.06
           C 114.61,31.06 116.75,38.56 116.75,38.56
             116.75,38.56 128.54,32.13 128.54,32.13
             128.54,32.13 129.61,53.56 129.61,53.56
             134.06,51.67 146.74,45.92 151.03,46.04
             155.24,46.15 156.01,49.11 159.78,48.92
             163.22,48.75 169.68,45.05 172.77,47.16
             176.04,49.39 176.68,60.33 181.44,64.81
             187.34,70.36 195.15,68.17 198.16,78.19
             198.16,78.19 186.38,80.33 186.38,80.33
             187.25,85.97 192.96,104.01 196.46,107.96
             199.34,111.20 207.90,114.93 212.08,117.02
             225.52,123.73 239.72,129.98 254.93,130.68
             254.93,130.68 254.93,133.89 254.93,133.89
             239.62,133.19 223.58,126.93 209.94,120.23
             206.10,118.34 198.18,114.46 195.17,111.82
             190.04,107.32 183.03,86.42 175.62,82.50
             172.89,81.06 169.07,81.51 166.03,81.36
             162.11,81.06 161.51,80.58 157.46,81.36
             164.43,84.74 164.17,87.85 169.28,93.09
             179.93,104.02 180.00,101.35 185.31,106.04
             178.49,109.20 171.15,108.44 163.88,107.40
             151.73,105.67 141.76,104.29 130.68,98.54
             130.68,101.73 130.27,107.43 131.77,110.15
             133.33,112.95 138.66,116.68 141.39,118.51
             151.23,125.11 162.66,130.13 174.59,130.68
             174.59,130.68 174.59,133.89 174.59,133.89
             161.22,133.28 138.59,124.60 130.21,114.14
             125.86,108.72 128.72,101.81 126.37,97.67
             125.07,95.39 122.06,93.51 119.97,91.95
             116.10,89.08 104.17,78.73 100.07,78.46
             96.46,78.21 95.35,81.95 87.83,83.55
             87.83,83.55 86.76,91.05 86.76,91.05
             86.76,91.05 74.98,78.19 74.98,78.19
             75.77,81.33 76.49,87.32 78.12,89.70
             80.60,93.31 86.25,94.00 85.17,99.63
             83.79,106.84 74.25,109.06 70.49,118.90
             70.49,118.90 61.67,173.52 61.67,173.52
             61.16,177.00 58.46,193.29 59.04,195.52
             59.88,198.72 63.41,199.96 65.33,204.60
             68.17,211.46 65.94,220.58 58.87,223.77
             44.50,230.27 34.27,209.35 45.35,199.93
             48.77,197.01 52.57,197.13 56.77,197.09
             56.77,197.09 60.77,168.17 60.77,168.17
             60.77,168.17 69.62,106.04 69.62,106.04
             69.62,106.04 65.34,109.26 65.34,109.26
             65.34,109.26 70.69,100.69 70.69,100.69
             65.88,104.09 61.31,105.06 55.70,102.83
             61.64,102.47 63.45,103.03 68.55,99.62
             59.24,98.09 62.21,93.69 57.40,89.69
             55.09,87.78 47.12,86.33 43.92,85.69
             43.92,85.69 38.16,110.33 38.16,110.33
             37.45,113.18 36.28,119.33 34.47,121.42
             31.90,124.38 21.20,127.47 17.14,128.99
             12.16,130.85 4.93,134.76 0.00,131.75
             0.00,131.75 21.42,123.91 21.42,123.91
             25.22,122.50 29.90,121.18 32.29,117.68
             34.86,113.92 35.17,104.34 35.56,99.62
             36.31,95.82 37.25,87.04 35.56,83.77
             33.00,79.83 25.07,78.34 18.21,70.69
             18.21,70.69 36.42,80.33 36.42,80.33
             36.41,76.94 36.64,73.88 35.20,70.69
             33.27,66.42 29.43,63.94 29.99,58.91
             29.99,58.91 36.42,67.48 36.42,67.48
             36.42,67.48 35.35,46.06 35.35,46.06
             41.41,47.78 44.81,51.44 49.27,55.70
             49.27,55.70 51.41,44.99 51.41,44.99
             51.41,44.99 67.48,56.77 67.48,56.77
             68.62,54.66 69.22,53.41 70.93,51.61
             76.34,45.93 90.83,38.27 96.40,47.13
             96.40,47.13 98.54,47.13 98.54,47.13
             102.13,39.82 106.87,34.09 114.61,31.06 Z
           M 99.62,51.48
           C 101.16,51.56 103.44,51.92 104.93,51.48
             108.50,50.62 113.58,44.30 114.09,40.70
             114.30,39.19 113.80,36.89 113.54,35.35
             106.85,38.51 102.23,44.58 99.62,51.48 Z
           M 127.46,54.63
           C 127.46,54.63 126.39,35.35 126.39,35.35
             115.32,40.65 118.65,52.64 127.46,54.63 Z
           M 114.61,43.92
           C 114.61,43.92 108.18,52.49 108.18,52.49
             108.18,52.49 118.90,53.56 118.90,53.56
             118.90,53.56 116.75,43.92 116.75,43.92
             116.75,43.92 114.61,43.92 114.61,43.92 Z
           M 64.44,58.95
           C 63.33,54.89 56.21,49.95 52.49,48.20
             49.94,57.81 49.96,58.01 56.68,65.34
             59.46,68.36 60.97,70.27 64.44,72.84
             64.44,72.84 64.44,58.95 64.44,58.95 Z
           M 150.91,49.39
           C 146.86,48.77 137.97,53.05 134.96,55.70
             145.31,55.67 144.82,54.68 154.24,51.41
             153.00,50.35 152.82,49.68 150.91,49.39 Z
           M 158.53,51.41
           C 164.00,60.77 167.70,61.99 177.81,64.27
             177.81,64.27 172.45,48.20 172.45,48.20
             172.45,48.20 158.53,51.41 158.53,51.41 Z
           M 40.72,72.69
           C 41.97,74.79 43.01,75.03 44.99,76.05
             46.65,63.73 51.78,60.15 39.63,51.41
             37.90,55.78 38.33,68.67 40.72,72.69 Z
           M 98.99,54.21
           C 98.99,54.21 96.40,57.84 96.40,57.84
             103.44,60.93 117.96,67.67 119.97,55.70
             119.97,55.70 98.99,54.21 98.99,54.21 Z
           M 146.74,56.77
           C 146.74,56.77 159.60,58.91 159.60,58.91
             156.30,52.50 152.16,52.92 146.74,56.77 Z
           M 162.72,63.13
           C 158.62,60.59 146.56,59.23 141.39,58.46
             137.05,57.82 126.86,55.58 124.98,61.41
             123.45,66.16 131.71,69.51 135.14,70.75
             135.14,70.75 144.60,73.33 144.60,73.33
             159.10,77.99 158.36,79.26 174.59,79.26
             172.76,74.55 167.00,65.77 162.72,63.13 Z
           M 159.60,58.91
           C 159.60,58.91 160.67,59.98 160.67,59.98
             160.67,59.98 160.67,58.91 160.67,58.91
             160.67,58.91 159.60,58.91 159.60,58.91 Z
           M 47.75,69.62
           C 45.58,79.34 48.40,82.02 57.84,85.69
             58.87,80.88 59.37,80.22 63.20,77.12
             63.20,77.12 50.34,62.13 50.34,62.13
             48.65,65.02 48.47,66.40 47.75,69.62 Z
           M 116.75,65.34
           C 116.75,65.34 122.11,66.41 122.11,66.41
             122.11,66.41 121.04,62.13 121.04,62.13
             121.04,62.13 116.75,65.34 116.75,65.34 Z
           M 168.17,64.27
           C 170.41,67.81 176.36,77.19 180.05,78.62
             183.43,79.93 192.22,77.81 196.02,77.12
             192.02,70.47 175.76,65.44 168.17,64.27 Z
           M 64.27,72.84
           C 64.27,72.84 65.34,73.91 65.34,73.91
             65.34,73.91 65.34,72.84 65.34,72.84
             65.34,72.84 64.27,72.84 64.27,72.84 Z
           M 65.34,73.91
           C 65.34,73.91 70.69,78.19 70.69,78.19
             70.69,78.19 71.77,74.98 71.77,74.98
             71.77,74.98 65.34,73.91 65.34,73.91 Z
           M 39.63,82.48
           C 44.95,80.63 43.83,78.62 40.70,74.98
             40.70,74.98 39.63,82.48 39.63,82.48 Z
           M 44.99,80.33
           C 44.99,80.33 44.99,84.62 44.99,84.62
             44.99,84.62 53.56,84.62 53.56,84.62
             53.56,84.62 44.99,80.33 44.99,80.33 Z
           M 181.02,81.41
           C 181.02,81.41 185.31,87.83 185.31,87.83
             185.31,87.83 184.23,81.41 184.23,81.41
             184.23,81.41 181.02,81.41 181.02,81.41 Z
           M 40.70,94.26
           C 41.31,89.91 42.75,87.56 40.70,83.55
             39.25,87.20 39.25,90.61 40.70,94.26 Z
           M 53.56,85.69
           C 53.56,85.69 54.63,86.76 54.63,86.76
             54.63,86.76 54.63,85.69 54.63,85.69
             54.63,85.69 53.56,85.69 53.56,85.69 Z
           M 74.39,100.59
           C 72.66,105.63 69.08,106.69 71.77,113.54
             75.84,108.11 85.88,101.82 83.41,96.82
             82.49,94.96 78.91,93.16 77.12,92.12
             74.46,96.22 75.71,96.74 74.39,100.59 Z
           M 72.84,102.83
           C 72.84,102.83 73.91,97.47 73.91,97.47
             73.91,97.47 72.84,102.83 72.84,102.83 Z" />
</svg>
