<?xml version="1.0" encoding="UTF-8" standalone="no"?>
<!-- Created with Inkscape (http://www.inkscape.org/) -->

<svg
   xmlns:dc="http://purl.org/dc/elements/1.1/"
   xmlns:cc="http://creativecommons.org/ns#"
   xmlns:rdf="http://www.w3.org/1999/02/22-rdf-syntax-ns#"
   xmlns:svg="http://www.w3.org/2000/svg"
   xmlns="http://www.w3.org/2000/svg"
   xmlns:sodipodi="http://sodipodi.sourceforge.net/DTD/sodipodi-0.dtd"
   xmlns:inkscape="http://www.inkscape.org/namespaces/inkscape"
   id="svg2"
   version="1.1"
   inkscape:version="0.91 r13725"
   xml:space="preserve"
   width="352.20001"
   height="314.67499"
   viewBox="0 0 352.20001 314.67499"
   sodipodi:docname="VB_logo_black.svg"><metadata
     id="metadata8"><rdf:RDF><cc:Work
         rdf:about=""><dc:format>image/svg+xml</dc:format><dc:type
           rdf:resource="http://purl.org/dc/dcmitype/StillImage" /><dc:title></dc:title></cc:Work></rdf:RDF></metadata><defs
     id="defs6" /><sodipodi:namedview
     pagecolor="#ffffff"
     bordercolor="#666666"
     borderopacity="1"
     objecttolerance="10"
     gridtolerance="10"
     guidetolerance="10"
     inkscape:pageopacity="0"
     inkscape:pageshadow="2"
     inkscape:window-width="1619"
     inkscape:window-height="1025"
     id="namedview4"
     showgrid="false"
     inkscape:zoom="0.74998017"
     inkscape:cx="-157.90883"
     inkscape:cy="157.33749"
     inkscape:window-x="0"
     inkscape:window-y="0"
     inkscape:window-maximized="0"
     inkscape:current-layer="g10" /><g
     id="g10"
     inkscape:groupmode="layer"
     inkscape:label="ink_ext_XXXXXX"
     transform="matrix(1.25,0,0,-1.25,0,314.675)"><path
       inkscape:connector-curvature="0"
       id="path14"
       style="fill:#211c1d;fill-opacity:1;fill-rule:nonzero;stroke:none"
       d="m 69.452,175.64 c -0.3122,0 -0.5961,0.211 -0.6766,0.526 -0.0957,0.374 0.1309,0.755 0.5035,0.849 8.782,2.237 21.3051,7.317 23.366,8.163 5.8133,17.211 13.4761,55.293 13.5531,55.677 0.046,0.23 0.202,0.42 0.418,0.509 0.215,0.092 0.461,0.065 0.655,-0.064 3.739,-2.499 15.478,-13.295 21.478,-20.057 0.255,-0.288 0.23,-0.73 -0.059,-0.986 -0.29,-0.255 -0.73,-0.23 -0.986,0.059 -5.421,6.111 -16.012,15.94 -20.351,19.208 -1.296,-6.346 -8.1796,-39.545 -13.4874,-55.096 -0.0652,-0.189 -0.2078,-0.342 -0.3926,-0.419 -0.1414,-0.059 -14.205,-5.891 -23.848,-8.346 -0.0586,-0.016 -0.1172,-0.023 -0.173,-0.023" /><path
       inkscape:connector-curvature="0"
       id="path16"
       style="fill:#211c1d;fill-opacity:1;fill-rule:nonzero;stroke:none"
       d="m 174.597,231.959 c 8.036,3.18 16.155,5.886 21.826,7.18 0.606,-1.674 2.472,-6.837 4.801,-13.367 0.576,-0.203 1.151,-0.406 1.7,-0.611 -3.013,8.461 -5.346,14.892 -5.397,15.032 -0.119,0.328 -0.46,0.517 -0.805,0.444 -6.253,-1.358 -15.77,-4.57 -24.885,-8.287 0.928,-0.129 1.849,-0.259 2.76,-0.391" /><path
       inkscape:connector-curvature="0"
       id="path18"
       style="fill:#211c1d;fill-opacity:1;fill-rule:nonzero;stroke:none"
       d="m 154.432,224.185 c -1.749,-0.982 -3.308,-1.936 -4.584,-2.834 -0.315,-0.222 -0.391,-0.658 -0.169,-0.973 0.222,-0.314 0.653,-0.388 0.973,-0.17 1.541,1.085 3.508,2.253 5.726,3.453 -0.655,0.177 -1.304,0.351 -1.946,0.524" /><path
       inkscape:connector-curvature="0"
       id="path20"
       style="fill:#211c1d;fill-opacity:1;fill-rule:nonzero;stroke:none"
       d="m 257.755,177.038 c -15.525,0 -41.188,14.821 -43.855,16.387 -1.957,6.013 -4.745,14.082 -7.467,21.824 -0.468,-0.049 -0.947,-0.093 -1.434,-0.134 2.794,-7.943 5.669,-16.26 7.654,-22.373 0.052,-0.16 0.16,-0.296 0.305,-0.383 1.139,-0.683 28.101,-16.719 44.797,-16.719 0.386,0 0.699,0.314 0.699,0.699 0,0.385 -0.313,0.699 -0.699,0.699" /><path
       inkscape:connector-curvature="0"
       id="path22"
       style="fill:#211c1d;fill-opacity:1;fill-rule:nonzero;stroke:none"
       d="m 197.815,177.038 c -15.245,0.125 -30.293,13.081 -32.284,14.857 -0.048,10.484 -0.235,20.625 -0.46,29.45 -0.469,0.124 -0.938,0.248 -1.407,0.372 0.232,-9.001 0.425,-19.382 0.472,-30.137 0.001,-0.192 0.082,-0.376 0.223,-0.507 0.67,-0.625 16.61,-15.294 33.444,-15.433 0.002,0 0.003,0 0.006,0 0.383,0 0.695,0.31 0.698,0.693 0.003,0.386 -0.307,0.701 -0.692,0.705" /><path
       inkscape:connector-curvature="0"
       id="path24"
       style="fill:#211c1d;fill-opacity:1;fill-rule:nonzero;stroke:none"
       d="m 148.357,235.068 c 3.946,5.299 9.032,10.445 14.356,14.274 0.108,-2.406 0.351,-8.13 0.607,-15.899 0.466,-0.056 0.934,-0.113 1.403,-0.171 -0.344,10.491 -0.667,17.269 -0.673,17.405 -0.013,0.253 -0.16,0.479 -0.387,0.592 -0.225,0.113 -0.496,0.097 -0.704,-0.049 -6.03,-4.121 -11.848,-9.983 -16.208,-15.995 0.521,-0.051 1.055,-0.103 1.606,-0.157" /><path
       inkscape:connector-curvature="0"
       id="path26"
       style="fill:#211c1d;fill-opacity:1;fill-rule:nonzero;stroke:none"
       d="m 142.057,227.545 c -0.893,-1.821 -1.601,-3.592 -2.067,-5.262 -0.103,-0.371 0.113,-0.757 0.485,-0.861 0.374,-0.106 0.757,0.115 0.861,0.485 0.465,1.668 1.175,3.441 2.083,5.266 -0.471,0.129 -0.925,0.253 -1.362,0.372" /><path
       inkscape:connector-curvature="0"
       id="path28"
       style="fill:#211c1d;fill-opacity:1;fill-rule:nonzero;stroke:none"
       d="m 136.631,229.889 c 5.899,-1.626 43.844,-12.056 52.202,-13.559 9.514,-1.709 24.414,0.107 25.797,1.628 -0.192,1.484 -10.272,6.852 -25.586,10.547 -14.467,3.493 -46.026,6.265 -51.136,6.699 l -1.277,-5.315 z m 61.359,-15.874 c -3.443,0 -6.794,0.215 -9.449,0.693 -9.098,1.636 -51.323,13.309 -53.117,13.805 -0.429,0.119 -0.686,0.555 -0.582,0.987 l 1.629,6.776 c 0.096,0.395 0.477,0.676 0.868,0.628 0.361,-0.029 36.28,-2.979 52.092,-6.795 13.779,-3.327 25.775,-8.59 26.741,-11.734 0.173,-0.564 0.058,-1.106 -0.322,-1.525 -1.544,-1.698 -9.945,-2.835 -17.86,-2.835" /><path
       inkscape:connector-curvature="0"
       id="path30"
       style="fill:#211c1d;fill-opacity:1;fill-rule:nonzero;stroke:none"
       d="m 140.065,236.703 c 1.389,1.933 0.919,6.272 -5.687,6.105 -6.607,-0.168 -16.14,-6.942 -17.896,-13.883 -1.757,-6.941 -0.335,-9.45 3.345,-9.617 3.679,-0.167 5.435,-2.76 6.941,-3.93 1.505,-1.171 7.944,-5.279 11.29,-0.633 3.345,4.647 1.054,6.654 2.366,10.417 1.313,3.763 -2.283,8.865 -0.359,11.541" /><path
       inkscape:connector-curvature="0"
       id="path32"
       style="fill:#211c1d;fill-opacity:1;fill-rule:nonzero;stroke:none"
       d="m 137.974,232.605 c 0,0 6.523,-3.292 15.387,-4.908 l 0,-1.28 c 0,0 11.206,-2.091 14.05,-2.509 l -0.586,-1.338 c 0,0 7.945,-1.506 13.381,-3.513 l -0.502,-0.919 c 0,0 7.359,-3.262 11.875,-8.614 l -0.752,-1.338 c 0,0 5.937,-5.436 8.279,-6.607 l -0.502,-1.254 c 0,0 4.85,-2.76 7.359,-3.429 2.509,-0.669 -1.087,-2.091 -2.09,-2.342 -1.004,-0.25 -10.203,-1.588 -28.768,3.178 -18.566,4.767 -24.671,18.984 -36.295,20.238 l -0.836,14.635" /><path
       inkscape:connector-curvature="0"
       id="path34"
       style="fill:#211c1d;fill-opacity:1;fill-rule:nonzero;stroke:none"
       d="m 121.873,220.78 c 0,0 -0.451,-3.596 -2.051,-5.962 l 3.03,-2.236 c 1.6,2.366 2.051,5.962 2.051,5.962 l -3.03,2.236" /><path
       inkscape:connector-curvature="0"
       id="path36"
       style="fill:#211c1d;fill-opacity:1;fill-rule:nonzero;stroke:none"
       d="m 120.523,216.073 c 0,0 -5.933,5.16 -9.154,-2.675 -1.175,-2.857 2.011,-8.268 2.437,-9.813 0.426,-1.544 4.474,-6.497 8.043,0 3.568,6.498 -1.326,12.488 -1.326,12.488" /><path
       inkscape:connector-curvature="0"
       id="path38"
       style="fill:#211c1d;fill-opacity:1;fill-rule:nonzero;stroke:none"
       d="m 121.05,214.818 c 2.223,-2.037 5.912,-6.386 2.343,-10.7 -3.568,-4.314 -7.35,-2.61 -8.095,-0.799 -0.746,1.811 0.266,5.433 -0.746,6.658 -1.012,1.224 -1.971,5.166 0,6.124 1.971,0.959 5.166,-0.062 6.498,-1.283" /><path
       inkscape:connector-curvature="0"
       id="path40"
       style="fill:#211c1d;fill-opacity:1;fill-rule:nonzero;stroke:none"
       d="m 116.385,215.929 c -0.581,0 -1.131,-0.097 -1.593,-0.322 -0.383,-0.186 -0.639,-0.562 -0.759,-1.118 -0.312,-1.439 0.36,-3.459 0.941,-4.162 0.672,-0.814 0.634,-2.234 0.593,-3.738 -0.032,-1.143 -0.064,-2.325 0.239,-3.062 0.251,-0.609 1.063,-1.347 2.255,-1.528 0.956,-0.142 2.855,-0.016 4.909,2.469 3.212,3.884 -0.057,7.898 -2.292,9.945 l 0,0 c -0.854,0.783 -2.689,1.516 -4.293,1.516 z m 2.216,-15.068 c -0.265,0 -0.501,0.021 -0.703,0.052 -1.406,0.212 -2.655,1.096 -3.108,2.196 -0.393,0.951 -0.356,2.253 -0.321,3.51 0.031,1.177 0.069,2.511 -0.342,3.008 -0.849,1.028 -1.53,3.427 -1.168,5.095 0.193,0.889 0.66,1.536 1.352,1.874 2.238,1.092 5.706,-0.087 7.11,-1.373 2.522,-2.31 6.187,-6.871 2.395,-11.456 -1.987,-2.403 -3.935,-2.906 -5.215,-2.906" /><path
       inkscape:connector-curvature="0"
       id="path42"
       style="fill:#211c1d;fill-opacity:1;fill-rule:nonzero;stroke:none"
       d="m 113.769,208.482 c -0.018,0 -0.034,0 -0.052,0.002 -0.189,0.017 -19.0756,1.854 -31.7924,13.2 -0.2266,0.202 -0.2465,0.549 -0.0445,0.776 0.2035,0.226 0.5515,0.244 0.7758,0.044 12.4496,-11.108 30.9761,-12.908 31.1621,-12.926 0.301,-0.027 0.524,-0.294 0.496,-0.597 -0.025,-0.285 -0.265,-0.499 -0.545,-0.499" /><path
       inkscape:connector-curvature="0"
       id="path44"
       style="fill:#211c1d;fill-opacity:1;fill-rule:nonzero;stroke:none"
       d="m 115.003,207.332 c -0.016,0.006 -0.032,0.011 -0.048,0.019 -0.173,0.078 -17.3905,8.055 -25.6413,22.967 -0.1469,0.266 -0.0512,0.6 0.2144,0.747 0.2668,0.147 0.6012,0.048 0.7469,-0.215 8.0773,-14.599 24.967,-22.423 25.137,-22.5 0.275,-0.125 0.398,-0.452 0.271,-0.728 -0.118,-0.261 -0.415,-0.383 -0.68,-0.29" /><path
       inkscape:connector-curvature="0"
       id="path46"
       style="fill:#211c1d;fill-opacity:1;fill-rule:nonzero;stroke:none"
       d="m 109.118,114.265 c -0.027,0 -0.053,0.001 -0.08,0.006 -0.3,0.042 -0.508,0.321 -0.465,0.621 l 12.931,90.186 c 0.042,0.301 0.32,0.521 0.622,0.465 0.3,-0.042 0.508,-0.322 0.465,-0.622 L 109.66,114.736 c -0.039,-0.273 -0.274,-0.471 -0.542,-0.471" /><path
       inkscape:connector-curvature="0"
       id="path48"
       style="fill:#211c1d;fill-opacity:1;fill-rule:nonzero;stroke:none"
       d="m 118.615,180.502 c -0.027,0 -0.053,10e-4 -0.08,0.005 -0.3,0.042 -0.508,0.322 -0.465,0.622 1.239,8.637 4.098,10.922 7.407,13.569 1.503,1.202 3.056,2.443 4.635,4.411 0.926,1.154 1.29,2.157 1.083,2.981 -0.387,1.544 -2.757,2.554 -4.661,3.366 -1.967,0.838 -3.521,1.5 -3.393,2.747 0.031,0.301 0.318,0.508 0.603,0.491 0.301,-0.032 0.521,-0.301 0.49,-0.603 -0.045,-0.442 1.625,-1.153 2.731,-1.624 2.238,-0.954 4.776,-2.037 5.296,-4.109 0.3,-1.193 -0.123,-2.48 -1.291,-3.936 -1.656,-2.063 -3.33,-3.401 -4.807,-4.582 -3.256,-2.604 -5.828,-4.66 -7.006,-12.868 -0.039,-0.273 -0.273,-0.47 -0.542,-0.47" /><path
       inkscape:connector-curvature="0"
       id="path50"
       style="fill:#211c1d;fill-opacity:1;fill-rule:nonzero;stroke:none"
       d="m 69.4508,175.239 c -0.4895,0 -0.9371,0.331 -1.0633,0.829 -0.1508,0.587 0.2059,1.186 0.7934,1.335 8.539,2.176 20.639,7.052 23.1402,8.076 5.5379,17.099 1.8273,53.99 1.7887,54.364 -0.043,0.423 0.1625,0.834 0.5269,1.053 0.3645,0.219 0.825,0.207 1.1766,-0.028 6.6067,-4.413 21.7137,-22.294 27.1317,-28.825 l 0,2.283 c 0,0.606 0.491,1.098 1.098,1.098 0.606,0 1.098,-0.492 1.098,-1.098 l 0,-5.345 c 0,-0.465 -0.292,-0.88 -0.73,-1.035 -0.433,-0.158 -0.927,-0.021 -1.22,0.341 -0.193,0.236 -17.924,21.956 -26.6617,29.275 0.7641,-8.828 2.818,-38.313 -2.2852,-53.264 -0.1015,-0.297 -0.3269,-0.538 -0.6179,-0.659 -0.1414,-0.059 -14.2321,-5.902 -23.9032,-8.364 -0.0914,-0.024 -0.1824,-0.036 -0.2722,-0.036" /><path
       inkscape:connector-curvature="0"
       id="path52"
       style="fill:#211c1d;fill-opacity:1;fill-rule:nonzero;stroke:none"
       d="m 197.809,175.241 c -0.003,0 -0.006,0 -0.01,0 -16.987,0.139 -33.038,14.911 -33.713,15.539 -0.222,0.207 -0.348,0.495 -0.349,0.799 -0.118,26.858 -9.107,51.55 -11.375,57.355 -16.355,-12.333 -18.855,-40.586 -18.879,-40.877 -0.04,-0.486 -0.396,-0.888 -0.874,-0.986 -0.482,-0.101 -0.964,0.131 -1.192,0.562 l -3.491,6.598 c -0.284,0.537 -0.079,1.201 0.457,1.485 0.539,0.283 1.203,0.08 1.485,-0.457 l 1.854,-3.503 c 1.252,8.446 5.791,29.734 20.518,39.795 0.271,0.185 0.616,0.241 0.928,0.147 0.317,-0.093 0.575,-0.322 0.704,-0.625 0.118,-0.28 11.802,-28.151 12.059,-58.996 2.42,-2.138 17.08,-14.517 31.887,-14.64 0.607,-0.005 1.095,-0.5 1.089,-1.107 -0.005,-0.603 -0.495,-1.089 -1.098,-1.089" /><path
       inkscape:connector-curvature="0"
       id="path54"
       style="fill:#211c1d;fill-opacity:1;fill-rule:nonzero;stroke:none"
       d="m 257.755,175.241 c -16.806,0 -43.86,16.089 -45.003,16.774 -0.227,0.137 -0.398,0.351 -0.48,0.604 -4.73,14.565 -27.231,42.025 -30.627,46.116 -18.656,-4.39 -44.182,-24.642 -44.44,-24.848 -0.322,-0.256 -0.757,-0.311 -1.131,-0.146 l -4.832,2.14 c -0.555,0.245 -0.805,0.895 -0.56,1.45 0.247,0.555 0.892,0.807 1.45,0.559 l 4.226,-1.871 c 3.914,3.063 27.519,21.11 45.467,25.01 0.405,0.085 0.814,-0.054 1.074,-0.366 1.061,-1.259 25.828,-30.784 31.33,-46.968 3.247,-1.897 28.322,-16.258 43.526,-16.258 0.606,0 1.098,-0.492 1.098,-1.098 0,-0.607 -0.492,-1.098 -1.098,-1.098" /><path
       inkscape:connector-curvature="0"
       id="path56"
       style="fill:#211c1d;fill-opacity:1;fill-rule:nonzero;stroke:none"
       d="m 117.131,193.593 c -0.138,0 -0.274,0.047 -0.386,0.142 -0.252,0.213 -0.285,0.591 -0.072,0.843 0.084,0.097 2.07,2.416 5.418,3.772 0.454,0.184 0.769,0.504 0.961,0.98 0.696,1.712 -0.383,4.898 -0.858,5.981 -0.133,0.303 0.005,0.656 0.306,0.789 0.309,0.13 0.657,-0.005 0.788,-0.307 0.079,-0.179 1.899,-4.388 0.874,-6.914 -0.318,-0.78 -0.863,-1.331 -1.622,-1.638 -3.077,-1.246 -4.935,-3.414 -4.951,-3.436 -0.119,-0.139 -0.288,-0.212 -0.458,-0.212" /><path
       inkscape:connector-curvature="0"
       id="path58"
       style="fill:#211c1d;fill-opacity:1;fill-rule:nonzero;stroke:none"
       d="m 110.081,197.022 c -0.261,0 -0.5,0.172 -0.574,0.435 -0.092,0.319 0.093,0.649 0.411,0.739 0.126,0.034 3.068,0.849 6.601,0.101 0.481,-0.103 0.918,-0.012 1.343,0.274 1.533,1.028 2.419,4.276 2.631,5.442 0.061,0.324 0.348,0.537 0.696,0.482 0.325,-0.06 0.54,-0.371 0.482,-0.696 -0.035,-0.191 -0.876,-4.699 -3.141,-6.221 -0.696,-0.468 -1.455,-0.619 -2.259,-0.452 -3.25,0.691 -6,-0.074 -6.026,-0.082 -0.056,-0.015 -0.11,-0.022 -0.164,-0.022" /><path
       inkscape:connector-curvature="0"
       id="path60"
       style="fill:#211c1d;fill-opacity:1;fill-rule:nonzero;stroke:none"
       d="m 23.9031,138.083 -9.3109,0 L 0,176.633 l 10.4539,0 8.9305,-27.333 0.2172,0 8.8746,27.333 10.2926,0 -14.8657,-38.55" /><path
       inkscape:connector-curvature="0"
       id="path62"
       style="fill:#211c1d;fill-opacity:1;fill-rule:nonzero;stroke:none"
       d="m 52.8141,138.083 0,38.55 25.9172,0 0,-7.842 -16.9333,0 0,-7.296 16.0079,0 0,-7.459 -16.0079,0 0,-8.004 17.9149,0 0,-7.949 -26.8988,0" /><path
       inkscape:connector-curvature="0"
       id="path64"
       style="fill:#211c1d;fill-opacity:1;fill-rule:nonzero;stroke:none"
       d="m 124.36,138.764 c -2.505,-1.144 -5.39,-1.716 -8.657,-1.716 -2.977,0 -5.727,0.49 -8.248,1.471 -2.524,0.98 -4.711,2.368 -6.561,4.165 -1.8506,1.796 -3.3042,3.947 -4.3553,6.452 -1.0539,2.505 -1.5797,5.263 -1.5797,8.276 0,3.084 0.5351,5.88 1.6051,8.385 1.0703,2.505 2.5515,4.637 4.4369,6.398 1.888,1.76 4.103,3.112 6.643,4.056 2.542,0.944 5.283,1.416 8.223,1.416 2.722,0 5.4,-0.481 8.031,-1.443 2.631,-0.963 4.764,-2.368 6.397,-4.22 l -6.316,-6.315 c -0.871,1.197 -2.014,2.086 -3.43,2.668 -1.416,0.579 -2.867,0.87 -4.355,0.87 -1.633,0 -3.131,-0.299 -4.493,-0.898 -1.36,-0.598 -2.531,-1.425 -3.512,-2.477 -0.979,-1.054 -1.741,-2.297 -2.285,-3.73 -0.545,-1.435 -0.818,-3.004 -0.818,-4.71 0,-1.742 0.273,-3.34 0.818,-4.791 0.544,-1.452 1.296,-2.695 2.259,-3.73 0.96,-1.034 2.115,-1.843 3.456,-2.423 1.343,-0.581 2.813,-0.871 4.411,-0.871 1.851,0 3.465,0.363 4.846,1.089 1.379,0.726 2.486,1.669 3.321,2.831 l 6.479,-6.099 c -1.706,-1.959 -3.811,-3.511 -6.316,-4.654" /><path
       inkscape:connector-curvature="0"
       id="path66"
       style="fill:#211c1d;fill-opacity:1;fill-rule:nonzero;stroke:none"
       d="m 161.713,168.683 0,-30.6 -9.311,0 0,30.6 -10.891,0 0,7.95 31.09,0 0,-7.95 -10.888,0" /><path
       inkscape:connector-curvature="0"
       id="path68"
       style="fill:#211c1d;fill-opacity:1;fill-rule:nonzero;stroke:none"
       d="m 216.324,157.521 c 0,1.67 -0.271,3.23 -0.816,4.683 -0.544,1.451 -1.299,2.695 -2.259,3.73 -0.963,1.034 -2.124,1.85 -3.487,2.45 -1.359,0.599 -2.857,0.898 -4.49,0.898 -1.634,0 -3.122,-0.299 -4.466,-0.898 -1.343,-0.6 -2.504,-1.416 -3.484,-2.45 -0.981,-1.035 -1.733,-2.279 -2.259,-3.73 -0.528,-1.453 -0.79,-3.013 -0.79,-4.683 0,-1.742 0.271,-3.348 0.816,-4.818 0.544,-1.471 1.299,-2.733 2.259,-3.785 0.963,-1.053 2.115,-1.878 3.458,-2.477 1.344,-0.599 2.832,-0.899 4.466,-0.899 1.633,0 3.121,0.3 4.465,0.899 1.341,0.599 2.505,1.424 3.484,2.477 0.981,1.052 1.743,2.314 2.287,3.785 0.545,1.47 0.816,3.076 0.816,4.818 z m 9.965,0 c 0,-3.049 -0.528,-5.836 -1.579,-8.358 -1.054,-2.524 -2.515,-4.683 -4.384,-6.479 -1.869,-1.797 -4.094,-3.185 -6.671,-4.165 -2.577,-0.981 -5.372,-1.471 -8.383,-1.471 -3.015,0 -5.8,0.49 -8.358,1.471 -2.559,0.98 -4.774,2.368 -6.643,4.165 -1.87,1.796 -3.33,3.955 -4.384,6.479 -1.054,2.522 -1.579,5.309 -1.579,8.358 0,3.085 0.525,5.87 1.579,8.358 1.054,2.486 2.514,4.601 4.384,6.344 1.869,1.742 4.084,3.084 6.643,4.028 2.558,0.944 5.343,1.416 8.358,1.416 3.011,0 5.806,-0.472 8.383,-1.416 2.577,-0.944 4.802,-2.286 6.671,-4.028 1.869,-1.743 3.33,-3.858 4.384,-6.344 1.051,-2.488 1.579,-5.273 1.579,-8.358" /><path
       inkscape:connector-curvature="0"
       id="path70"
       style="fill:#211c1d;fill-opacity:1;fill-rule:nonzero;stroke:none"
       d="m 263.586,164.817 c 0,0.906 -0.192,1.643 -0.575,2.206 -0.383,0.562 -0.876,0.997 -1.477,1.306 -0.603,0.308 -1.278,0.517 -2.026,0.626 -0.747,0.109 -1.467,0.164 -2.161,0.164 l -4.977,0 0,-8.985 4.43,0 c 0.767,0 1.552,0.064 2.353,0.191 0.804,0.127 1.533,0.354 2.19,0.681 0.656,0.326 1.194,0.798 1.612,1.416 0.42,0.617 0.631,1.415 0.631,2.395 z m 0.381,-26.734 -8.37,15.3 -3.173,0 0,-15.3 -9.094,0 0,38.55 14.702,0 c 1.85,0 3.656,-0.192 5.418,-0.572 1.76,-0.381 3.339,-1.026 4.737,-1.933 1.397,-0.908 2.514,-2.106 3.348,-3.593 0.834,-1.49 1.252,-3.34 1.252,-5.555 0,-2.613 -0.708,-4.809 -2.124,-6.587 -1.416,-1.78 -3.374,-3.05 -5.879,-3.813 l 10.073,-16.497 -10.89,0" /><path
       inkscape:connector-curvature="0"
       id="path72"
       style="fill:#211c1d;fill-opacity:1;fill-rule:nonzero;stroke:none"
       d="m 55.0852,36.2109 c 0,4.352 -0.6942,8.068 -2.0774,11.15 -1.3855,3.0821 -3.1613,5.5629 -5.3273,7.4371 -2.1684,1.8731 -4.6055,3.2309 -7.316,4.0782 -2.7082,0.8468 -5.3907,1.2699 -8.0379,1.2699 l -14.9914,0 0,-46.6 15.7136,0 c 3.0094,0 5.8715,0.4519 8.5797,1.3598 2.7106,0.907 5.059,2.2671 7.0449,4.0793 1.9864,1.8117 3.5493,4.1398 4.6965,6.9808 1.1426,2.8391 1.7153,6.2539 1.7153,10.2449 z m -3.4325,57.62 c 0,3.8703 -0.6031,7.1041 -1.8062,9.7071 -1.2035,2.598 -2.7711,4.715 -4.6965,6.349 -1.9254,1.631 -4.1242,2.78 -6.5914,3.446 -2.4699,0.666 -5.0285,0.998 -7.6758,0.998 l -13.5476,0 0,-41.3611 13.9074,0 c 2.409,0 4.8461,0.393 7.316,1.1801 2.4672,0.784 4.666,1.9949 6.5914,3.627 1.9254,1.6308 3.493,3.7781 4.6965,6.439 1.2031,2.6621 1.8062,5.868 1.8062,9.6149 z M 49.3043,67.191 c 2.2875,-0.484 4.7246,-1.4449 7.316,-2.891 2.5887,-1.4449 4.9676,-3.4621 7.1383,-6.05 2.1684,-2.591 3.9742,-5.7801 5.4184,-9.573 1.4418,-3.7942 2.1636,-8.2809 2.1636,-13.4571 0,-6.623 -1.0863,-12.1629 -3.2593,-16.616 C 65.9082,14.148 63.1324,10.5359 59.7512,7.76719 56.3703,4.99609 52.627,3.00781 48.5238,1.80586 44.416,0.601953 40.4324,0 36.5723,0 l -34.58871,0 0,127.878 30.70551,0 c 3.6121,0 7.4324,-0.451 11.4675,-1.354 4.0332,-0.903 7.7368,-2.56 11.1082,-4.968 3.3696,-2.41 6.143,-5.66 8.309,-9.753 2.1684,-4.095 3.2528,-9.274 3.2528,-15.5331 0,-4.2168 -0.484,-7.8879 -1.4465,-11.0168 C 64.4148,82.1191 63.123,79.382 61.4969,77.034 59.8703,74.6852 58.0035,72.727 55.898,71.1641 53.7906,69.598 51.5918,68.393 49.3043,67.552 l 0,-0.361" /><path
       inkscape:connector-curvature="0"
       id="path74"
       style="fill:#211c1d;fill-opacity:1;fill-rule:nonzero;stroke:none"
       d="m 100.422,0 0,90.6711 15.351,0 0,-90.6711 -15.351,0 z m 17.34,117.583 c 0,-3.011 -0.935,-5.481 -2.802,-7.405 -1.867,-1.927 -4.124,-2.89 -6.771,-2.89 -2.772,0 -5.059,0.963 -6.865,2.89 -1.8064,1.924 -2.7084,4.394 -2.7084,7.405 0,2.89 0.902,5.328 2.7084,7.316 1.806,1.986 4.093,2.979 6.865,2.979 2.766,0 5.056,-0.993 6.862,-2.979 1.806,-1.988 2.711,-4.426 2.711,-7.316" /><path
       inkscape:connector-curvature="0"
       id="path76"
       style="fill:#211c1d;fill-opacity:1;fill-rule:nonzero;stroke:none"
       d="m 178.807,113.97 0,-113.97 -16.255,0 0,113.97 -24.383,0 0,13.908 65.023,0 0,-13.908 -24.385,0" /><path
       inkscape:connector-curvature="0"
       id="path78"
       style="fill:#211c1d;fill-opacity:1;fill-rule:nonzero;stroke:none"
       d="m 226.13,0 0,127.878 53.824,0 0,-14.45 -38.11,0 0,-40.278 35.581,0 0,-13.5461 -35.581,0 0,-44.9738 39.916,0 0,-14.6301 -55.63,0" /><path
       inkscape:connector-curvature="0"
       id="path80"
       style="fill:#000000;fill-opacity:1;fill-rule:nonzero;stroke:none"
       d="m 117.98,117.583 c 0,-3.08 -0.956,-5.606 -2.864,-7.574 -1.911,-1.972 -4.22,-2.957 -6.928,-2.957 -2.835,0 -5.174,0.985 -7.021,2.957 -1.8479,1.968 -2.7717,4.494 -2.7717,7.574 0,2.957 0.9238,5.451 2.7717,7.484 1.847,2.031 4.186,3.047 7.021,3.047 2.831,0 5.173,-1.016 7.021,-3.047 1.847,-2.033 2.771,-4.527 2.771,-7.484" /></g></svg>