<?xml version="1.0" encoding="UTF-8" standalone="no"?>
<!-- Created with Inkscape (http://www.inkscape.org/) -->

<svg
   xmlns:dc="http://purl.org/dc/elements/1.1/"
   xmlns:cc="http://creativecommons.org/ns#"
   xmlns:rdf="http://www.w3.org/1999/02/22-rdf-syntax-ns#"
   xmlns:svg="http://www.w3.org/2000/svg"
   xmlns="http://www.w3.org/2000/svg"
   xmlns:sodipodi="http://sodipodi.sourceforge.net/DTD/sodipodi-0.dtd"
   xmlns:inkscape="http://www.inkscape.org/namespaces/inkscape"
   id="svg3277"
   version="1.1"
   inkscape:version="0.48.5 r10040"
   width="292.5"
   height="223.79625"
   xml:space="preserve"
   sodipodi:docname="VectorByte-logo.svg"
   inkscape:export-filename="C:\Users\Francis\Desktop\VectorByte-logo.png"
   inkscape:export-xdpi="184.62"
   inkscape:export-ydpi="184.62"><metadata
     id="metadata3283"><rdf:RDF><cc:Work
         rdf:about=""><dc:format>image/svg+xml</dc:format><dc:type
           rdf:resource="http://purl.org/dc/dcmitype/StillImage" /><dc:title></dc:title></cc:Work></rdf:RDF></metadata><defs
     id="defs3281"><clipPath
       clipPathUnits="userSpaceOnUse"
       id="clipPath3291"><path
         d="m 0,179.037 234,0 L 234,0 0,0 0,179.037 z"
         id="path3293" /></clipPath><clipPath
       clipPathUnits="userSpaceOnUse"
       id="clipPath3371"><path
         d="m 83.1415,145.87 64.0245,0 0,-18.002 -64.0245,0 0,18.002 z"
         id="path3373" /></clipPath></defs><sodipodi:namedview
     pagecolor="#ffffff"
     bordercolor="#666666"
     borderopacity="1"
     objecttolerance="10"
     gridtolerance="10"
     guidetolerance="10"
     inkscape:pageopacity="0"
     inkscape:pageshadow="2"
     inkscape:window-width="1920"
     inkscape:window-height="1017"
     id="namedview3279"
     showgrid="false"
     inkscape:zoom="4"
     inkscape:cx="156.18671"
     inkscape:cy="95.041949"
     inkscape:window-x="-8"
     inkscape:window-y="-8"
     inkscape:window-maximized="1"
     inkscape:current-layer="g3285" /><g
     id="g3285"
     inkscape:groupmode="layer"
     inkscape:label="VectorByte-logo"
     transform="matrix(1.25,0,0,-1.25,0,223.79625)"><g
       id="g3287"><g
         id="g3289"
         clip-path="url(#clipPath3291)"><g
           id="g3295"
           transform="translate(54.3989,32.0166)"><path
             d="m 0,0 -20.485,0 0,8.352 20.485,0 C 2.302,8.352 4.175,6.479 4.175,4.176 4.175,1.873 2.302,0 0,0 m 0,32.523 -28.399,0 0,-7.91 28.399,0 c 2.302,0 4.175,-1.873 4.175,-4.176 0,-2.302 -1.873,-4.175 -4.175,-4.175 l -28.396,0 -0.003,0 0,-7.91 0.003,0 0,-16.262 28.396,0 c 6.665,0 12.086,5.422 12.086,12.086 0,3.133 -1.208,5.981 -3.17,8.131 1.962,2.149 3.17,4.998 3.17,8.13 0,6.665 -5.421,12.086 -12.086,12.086"
             style="fill:#211c1d;fill-opacity:1;fill-rule:nonzero;stroke:none"
             id="path3297" /></g><g
           id="g3299"
           transform="translate(169.7666,24.1064)"><path
             d="m 0,0 38.233,0 0,7.91 -30.323,0 0,8.352 30.323,0 0,7.91 L 0,24.172 0,0 z"
             style="fill:#211c1d;fill-opacity:1;fill-rule:nonzero;stroke:none"
             id="path3301" /></g><path
           d="m 169.763,56.63 38.237,0 0,7.91 -38.237,0 0,-7.91 z"
           style="fill:#211c1d;fill-opacity:1;fill-rule:nonzero;stroke:none"
           id="path3303" /><g
           id="g3305"
           transform="translate(120.6553,56.6299)"><path
             d="m 0,0 15.164,0 0,-32.527 7.91,0 0,32.527 15.163,0 0,7.91 L 0,7.91 0,0 z"
             style="fill:#211c1d;fill-opacity:1;fill-rule:nonzero;stroke:none"
             id="path3307" /></g><g
           id="g3309"
           transform="translate(92.938,48.5469)"><path
             d="m 0,0 -12.08,15.997 -9.913,0 18.037,-23.888 0,-16.553 7.912,0 0,16.553 18.038,23.888 -9.914,0 L 0,0 z"
             style="fill:#211c1d;fill-opacity:1;fill-rule:nonzero;stroke:none"
             id="path3311" /></g><g
           id="g3313"
           transform="translate(26.2617,99.0967)"><path
             d="M 0,0 3.326,0 12.737,-20.519 22.186,0 l 3.213,0 -11.377,-23.989 -2.646,0 L 0,0 z"
             style="fill:#211c1d;fill-opacity:1;fill-rule:nonzero;stroke:none"
             id="path3315" /></g><g
           id="g3317"
           transform="translate(74.9824,77.7275)"><path
             style="fill:#211c1d;fill-opacity:1;fill-rule:nonzero;stroke:none"
             d="m 75.8125,99.9375 0,29.75 c 7.933519,0 16.783875,0 24.15625,0 l 0,-3.0625 c -6.868205,0 -14.354233,0 -20.40625,0 l 0,-10.40625 18.03125,0 0,-3.0625 -18.03125,0 0,-10.15625 20.15625,0 0,-3.0625 z"
             transform="matrix(0.8,0,0,-0.8,-74.9824,101.3095)"
             id="path3319"
             inkscape:connector-curvature="0"
             sodipodi:nodetypes="ccccccccccccc" /></g><g
           id="g3323"
           transform="translate(135.1221,99.0967)"><path
             style="fill:#211c1d;fill-opacity:1;fill-rule:nonzero;stroke:none"
             d="m 149.4375,99.9375 0,3.09375 11.09375,0 0,26.65625 3.78125,0 0,-26.65625 c 3.70833,0 7.41667,0 11.125,0 l 0,-3.09375 c -8.66667,0 -17.33333,0 -26,0 z"
             transform="matrix(0.8,0,0,-0.8,-135.1221,79.9403)"
             id="path3325"
             inkscape:connector-curvature="0"
             sodipodi:nodetypes="ccccccccc" /></g><path
           style="fill:#211c1d;fill-opacity:1;fill-rule:nonzero;stroke:none"
           d="m 232.03125,99.9375 c 0,9.91667 0,19.83333 0,29.75 l 3.71875,0 c 0,-3.85417 0,-7.70833 0,-11.5625 l 9.46875,0 9.59375,11.5625 4.5625,0 -10.15625,-12.15625 c 5.1975,-0.84875 9,-3.75375 9,-8.6875 l 0,-0.0625 c 0,-2.34 -0.95625,-4.4275 -2.5625,-5.875 C 253.5775,101.035 250.31375,99.9375 246.25,99.9375 z m 3.71875,3.09375 10.21875,0 c 5.33875,0 8.46875,2.2175 8.46875,5.875 l 0,0.0937 c 0,3.8275 -3.57,6.125 -8.53125,6.125 l -10.15625,0 z"
           transform="matrix(0.8,0,0,-0.8,0,179.037)"
           id="path3329"
           inkscape:connector-curvature="0"
           sodipodi:nodetypes="ccccccccsscsccsssscc" /><g
           id="g3331"
           transform="translate(188.6113,86.9492)" /><g
           id="g3335"
           transform="translate(100.314,77.4805)"><path
             style="fill:#211c1d;fill-opacity:1;fill-rule:nonzero;stroke:none"
             d="m 127.46875,99.40625 c -0.67488,0 -1.32163,-0.0017 -1.96875,0.06356 l 0,-0.0011 c -3.44573,0.340742 -6.46311,1.61368 -8.875,3.5 -0.79829,0.62433 -1.5375,1.30714 -2.1875,2.0625 -0.0193,0.022 -0.0433,0.0404 -0.0625,0.0625 -0.26412,0.31061 -0.51286,0.63854 -0.75,0.96875 -0.0652,0.0889 -0.15562,0.15977 -0.21875,0.25 -0.14621,0.21344 -0.2715,0.43544 -0.40625,0.65625 -0.16747,0.268 -0.31876,0.53454 -0.46875,0.8125 -1.14123,2.11493 -1.78125,4.50786 -1.78125,7.03125 l 0,0.0937 c 0,7.96 6.1125,14.3425 14.65625,15.1875 l 0.0209,-0.01 c 0.70787,0.0786 1.39374,0.0724 2.1353,0.0724 6,0 9.59875,-1.91125 12.90625,-4.71875 l -2.5625,-2.46875 c -2.7875,2.38375 -5.8875,4.09375 -10.375,4.09375 -7.32375,0 -12.8125,-5.37 -12.8125,-12.21875 l 0,-0.0937 c 0,-5.42962 3.45188,-9.89906 8.46875,-11.5625 0.022,-0.007 0.0404,-0.0241 0.0625,-0.0312 0.21546,-0.0673 0.43513,-0.13058 0.65625,-0.1875 0.22912,-0.0617 0.45266,-0.13744 0.6875,-0.1875 0.1142,-0.0231 0.22824,-0.0422 0.34375,-0.0625 0.80251,-0.14124 1.60963,-0.1875 2.46875,-0.1875 4.4875,0 7.61875,1.67875 10.40625,4.0625 l 2.5625,-2.46875 c -3.3075,-2.8075 -6.90625,-4.71875 -12.90625,-4.71875 z"
             transform="matrix(0.8,0,0,-0.8,-100.314,101.5565)"
             id="path3337"
             inkscape:connector-curvature="0"
             sodipodi:nodetypes="cccscccccsssccsccsssccccssccsc" /></g><g
           id="g3339"
           transform="translate(198.5605,97.6953)"><path
             d="M 0,0 C 0.246,0 0.471,0.166 0.532,0.415 0.608,0.71 0.431,1.008 0.139,1.081 -6.769,2.842 -16.615,6.837 -18.234,7.5 c -4.57,13.532 -10.596,43.475 -10.658,43.775 -0.033,0.182 -0.156,0.332 -0.328,0.403 -0.169,0.071 -0.362,0.049 -0.513,-0.052 -2.943,-1.963 -12.171,-10.452 -16.889,-15.768 -0.199,-0.227 -0.181,-0.575 0.047,-0.777 0.23,-0.2 0.573,-0.182 0.776,0.045 4.264,4.807 12.59,12.535 16.001,15.105 1.017,-4.991 6.432,-31.093 10.603,-43.321 0.051,-0.146 0.166,-0.266 0.309,-0.327 C -18.774,6.536 -7.718,1.951 -0.135,0.019 -0.088,0.007 -0.043,0 0,0"
             style="fill:#211c1d;fill-opacity:1;fill-rule:nonzero;stroke:none"
             id="path3341" /></g><g
           id="g3343"
           transform="translate(115.8906,141.978)"><path
             d="m 0,0 c -6.317,2.5 -12.703,4.628 -17.159,5.645 -0.476,-1.314 -1.945,-5.375 -3.775,-10.51 -0.454,-0.16 -0.906,-0.32 -1.339,-0.479 2.371,6.652 4.205,11.707 4.245,11.818 0.095,0.258 0.362,0.405 0.632,0.35 C -12.479,5.755 -4.997,3.23 2.172,0.307 1.44,0.205 0.715,0.104 0,0"
             style="fill:#211c1d;fill-opacity:1;fill-rule:nonzero;stroke:none"
             id="path3345" /></g><g
           id="g3347"
           transform="translate(131.7441,135.8657)"><path
             d="M 0,0 C 1.376,-0.771 2.603,-1.523 3.606,-2.23 3.855,-2.401 3.914,-2.746 3.738,-2.994 3.563,-3.24 3.226,-3.298 2.974,-3.126 1.764,-2.272 0.216,-1.354 -1.529,-0.411 -1.013,-0.273 -0.503,-0.135 0,0"
             style="fill:#211c1d;fill-opacity:1;fill-rule:nonzero;stroke:none"
             id="path3349" /></g><g
           id="g3351"
           transform="translate(49.0054,98.752)"><path
             d="M 0,0 C 12.206,0 33.888,11.695 35.985,12.928 37.524,17.657 39.714,24 41.854,30.087 42.223,30.05 42.601,30.013 42.981,29.982 40.786,23.739 38.525,17.196 36.965,12.394 36.925,12.268 36.839,12.159 36.726,12.089 35.828,11.554 13.126,-1.101 0,-1.101 c -0.304,0 -0.55,0.249 -0.55,0.551 C -0.55,-0.246 -0.304,0 0,0"
             style="fill:#211c1d;fill-opacity:1;fill-rule:nonzero;stroke:none"
             id="path3353" /></g><g
           id="g3355"
           transform="translate(97.9482,98.5889)"><path
             d="m 0,0 c 11.987,0.099 23.505,10.492 25.071,11.89 0.037,8.243 0.184,16.216 0.363,23.154 l 1.105,0.292 c -0.182,-7.076 -0.335,-15.24 -0.372,-23.695 0,-0.151 -0.064,-0.295 -0.174,-0.4 C 25.468,10.75 13.246,-0.989 0.009,-1.1 l -0.003,0 c -0.301,0 -0.547,0.246 -0.55,0.547 C -0.547,-0.249 -0.301,-0.003 0,0"
             style="fill:#211c1d;fill-opacity:1;fill-rule:nonzero;stroke:none"
             id="path3357" /></g><g
           id="g3359"
           transform="translate(136.5244,144.4224)"><path
             d="m 0,0 c -3.105,4.168 -7.104,8.212 -11.291,11.223 -0.082,-1.892 -0.272,-6.391 -0.476,-12.501 -0.365,-0.043 -0.734,-0.089 -1.102,-0.135 0.27,8.249 0.524,13.579 0.528,13.685 0.012,0.2 0.125,0.375 0.304,0.464 0.178,0.09 0.391,0.077 0.553,-0.036 C -6.742,9.459 -2.166,4.85 1.262,0.123 0.851,0.083 0.433,0.043 0,0"
             style="fill:#211c1d;fill-opacity:1;fill-rule:nonzero;stroke:none"
             id="path3361" /></g><g
           id="g3363"
           transform="translate(141.4746,138.5073)"><path
             d="m 0,0 c 0.703,-1.432 1.26,-2.823 1.628,-4.137 0.08,-0.292 -0.09,-0.596 -0.384,-0.675 -0.292,-0.087 -0.593,0.088 -0.676,0.38 -0.365,1.311 -0.924,2.705 -1.636,4.14 C -0.7,-0.191 -0.341,-0.093 0,0"
             style="fill:#211c1d;fill-opacity:1;fill-rule:nonzero;stroke:none"
             id="path3365" /></g><g
           id="g3367"><g
             id="g3369" /><g
             id="g3375"><g
               clip-path="url(#clipPath3371)"
               opacity="0.300003"
               id="g3377"><g
                 transform="translate(97.5,127.8677)"
                 id="g3379"><path
                   d="m 0,0 c -6.226,0 -12.829,0.894 -14.045,2.23 -0.298,0.329 -0.387,0.755 -0.252,1.201 0.759,2.469 10.191,6.61 21.026,9.223 12.433,3.001 40.673,5.323 40.956,5.344 0.307,0.037 0.608,-0.184 0.681,-0.494 l 1.281,-5.326 C 49.73,11.837 49.527,11.494 49.189,11.401 47.78,11.011 14.583,1.833 7.43,0.547 5.341,0.169 2.706,0 0,0"
                   style="fill:#211c1d;fill-opacity:1;fill-rule:nonzero;stroke:none"
                   id="path3381" /></g></g></g></g><g
           id="g3383"
           transform="translate(97.5,127.8677)"><path
             d="m 0,0 c -6.226,0 -12.829,0.894 -14.045,2.23 -0.298,0.329 -0.387,0.755 -0.252,1.201 0.759,2.469 10.191,6.61 21.026,9.223 12.433,3.001 40.673,5.323 40.956,5.344 0.307,0.037 0.608,-0.184 0.681,-0.494 l 1.281,-5.326 C 49.73,11.837 49.527,11.494 49.189,11.401 47.78,11.011 14.583,1.833 7.43,0.547 5.341,0.169 2.706,0 0,0 M 47.24,16.663 C 43.219,16.321 18.406,14.141 7.033,11.396 -5.009,8.489 -12.934,4.27 -13.084,3.103 -11.997,1.904 -0.283,0.48 7.199,1.822 c 6.569,1.182 36.405,9.382 41.041,10.66 l -1,4.181 z"
             style="fill:#211c1d;fill-opacity:1;fill-rule:nonzero;stroke:none"
             id="path3385" /></g><g
           id="g3387"
           transform="translate(143.041,145.7095)"><path
             d="m 0,0 c -1.09,1.518 -0.722,4.929 4.472,4.797 5.196,-0.132 12.691,-5.458 14.073,-10.915 1.378,-5.458 0.261,-7.43 -2.633,-7.562 -2.892,-0.129 -4.272,-2.168 -5.458,-3.089 -1.182,-0.918 -6.243,-4.15 -8.876,-0.498 -2.628,3.655 -0.828,5.233 -1.86,8.191 C -1.314,-6.118 1.514,-2.107 0,0"
             style="fill:#211c1d;fill-opacity:1;fill-rule:nonzero;stroke:none"
             id="path3389" /></g><g
           id="g3391"
           transform="translate(144.6875,142.4844)"><path
             d="m 0,0 c 0,0 -5.129,-2.586 -12.098,-3.857 l 0,-1.008 c 0,0 -8.811,-1.643 -11.048,-1.971 l 0.461,-1.054 c 0,0 -6.247,-1.183 -10.522,-2.761 l 0.396,-0.722 c 0,0 -5.786,-2.564 -9.336,-6.772 l 0.589,-1.054 c 0,0 -4.669,-4.272 -6.507,-5.193 l 0.393,-0.986 c 0,0 -3.812,-2.172 -5.787,-2.697 -1.972,-0.525 0.857,-1.643 1.646,-1.843 0.79,-0.196 8.019,-1.246 22.618,2.5 14.597,3.748 19.397,14.927 28.537,15.913 L 0,0"
             style="fill:#211c1d;fill-opacity:1;fill-rule:nonzero;stroke:none"
             id="path3393" /></g><g
           id="g3395"
           transform="translate(157.3477,133.1875)"><path
             d="m 0,0 c 0,0 0.353,-2.826 1.612,-4.687 l -2.383,-1.756 c -1.259,1.858 -1.613,4.687 -1.613,4.687 L 0,0"
             style="fill:#211c1d;fill-opacity:1;fill-rule:nonzero;stroke:none"
             id="path3397" /></g><g
           id="g3399"
           transform="translate(158.4072,129.4868)"><path
             d="M 0,0 C 0,0 4.665,4.057 7.199,-2.104 8.12,-4.349 5.617,-8.603 5.282,-9.819 c -0.334,-1.213 -3.519,-5.107 -6.324,0 C -3.849,-4.708 0,0 0,0"
             style="fill:#211c1d;fill-opacity:1;fill-rule:nonzero;stroke:none"
             id="path3401" /></g><g
           id="g3403"
           transform="translate(157.9922,128.501)"><path
             d="m 0,0 c -1.747,-1.604 -4.646,-5.022 -1.843,-8.412 2.808,-3.395 5.781,-2.052 6.366,-0.63 0.587,1.425 -0.208,4.272 0.587,5.236 0.796,0.962 1.548,4.06 0,4.813 C 3.56,1.763 1.047,0.961 0,0"
             style="fill:#211c1d;fill-opacity:1;fill-rule:nonzero;stroke:none"
             id="path3405" /></g><g
           id="g3407"
           transform="translate(159.918,117.5269)"><path
             d="m 0,0 c -1.008,0 -2.537,0.396 -4.1,2.285 -2.982,3.606 -0.098,7.19 1.882,9.008 1.106,1.011 3.83,1.938 5.591,1.078 C 3.919,12.108 4.284,11.598 4.435,10.897 4.721,9.585 4.187,7.7 3.517,6.893 3.194,6.502 3.225,5.452 3.249,4.527 3.276,3.539 3.305,2.516 2.998,1.766 2.642,0.904 1.658,0.209 0.553,0.041 0.393,0.016 0.209,0 0,0 m 1.741,11.846 c -1.259,0 -2.702,-0.574 -3.375,-1.191 -1.757,-1.61 -4.328,-4.764 -1.8,-7.82 1.616,-1.953 3.108,-2.052 3.858,-1.941 0.939,0.144 1.575,0.725 1.774,1.201 0.238,0.58 0.213,1.511 0.189,2.408 -0.034,1.183 -0.063,2.3 0.466,2.939 0.455,0.553 0.983,2.141 0.741,3.274 -0.096,0.436 -0.298,0.731 -0.6,0.878 -0.362,0.179 -0.796,0.252 -1.253,0.252"
             style="fill:#211c1d;fill-opacity:1;fill-rule:nonzero;stroke:none"
             id="path3409" /></g><g
           id="g3411"
           transform="translate(163.7168,123.519)"><path
             d="m 0,0 0.04,0 c 0.151,0.016 15,1.459 24.997,10.381 0.179,0.157 0.193,0.43 0.037,0.608 -0.159,0.178 -0.433,0.194 -0.611,0.037 C 14.676,2.291 0.107,0.875 -0.036,0.863 -0.272,0.841 -0.451,0.63 -0.426,0.393 -0.408,0.169 -0.221,0 0,0"
             style="fill:#211c1d;fill-opacity:1;fill-rule:nonzero;stroke:none"
             id="path3413" /></g><g
           id="g3415"
           transform="translate(162.7461,122.6167)"><path
             d="m 0,0 c 0.013,0.003 0.024,0.006 0.04,0.012 0.136,0.061 13.671,6.333 20.161,18.059 0.113,0.209 0.039,0.473 -0.17,0.587 -0.209,0.117 -0.472,0.036 -0.586,-0.17 C 13.093,7.012 -0.187,0.859 -0.318,0.798 -0.537,0.7 -0.633,0.441 -0.534,0.227 -0.441,0.021 -0.209,-0.074 0,0"
             style="fill:#211c1d;fill-opacity:1;fill-rule:nonzero;stroke:none"
             id="path3417" /></g><g
           id="g3419"
           transform="translate(163.5703,77.7822)"><path
             d="M 0,0 C 0.021,0 0.04,0.004 0.062,0.007 0.298,0.04 0.461,0.259 0.427,0.495 l -6.362,42.567 c -0.034,0.237 -0.252,0.408 -0.488,0.366 -0.236,-0.034 -0.399,-0.256 -0.365,-0.492 L -0.427,0.372 C -0.396,0.157 -0.213,0 0,0"
             style="fill:#211c1d;fill-opacity:1;fill-rule:nonzero;stroke:none"
             id="path3421" /></g><g
           id="g3423"
           transform="translate(159.9092,101.5195)"><path
             d="m 0,0 c 0.018,0 0.04,0 0.062,0.003 0.236,0.034 0.399,0.255 0.365,0.492 -0.975,6.79 -3.222,8.586 -5.824,10.666 -1.182,0.946 -2.401,1.922 -3.645,3.468 -0.729,0.909 -1.014,1.698 -0.851,2.347 0.303,1.212 2.167,2.004 3.664,2.644 1.548,0.66 2.77,1.179 2.668,2.162 -0.024,0.237 -0.252,0.399 -0.472,0.384 -0.239,-0.025 -0.412,-0.237 -0.387,-0.473 0.036,-0.348 -1.277,-0.907 -2.147,-1.278 -1.76,-0.75 -3.756,-1.601 -4.164,-3.231 -0.237,-0.936 0.097,-1.951 1.016,-3.092 1.303,-1.626 2.616,-2.676 3.778,-3.603 2.561,-2.05 4.582,-3.665 5.51,-10.121 C -0.396,0.156 -0.213,0 0,0"
             style="fill:#211c1d;fill-opacity:1;fill-rule:nonzero;stroke:none"
             id="path3425" /></g><g
           id="g3427"
           transform="translate(198.5645,97.3828)"><path
             d="M 0,0 C 0.384,0 0.733,0.258 0.835,0.65 0.952,1.111 0.672,1.585 0.211,1.701 -6.503,3.412 -16.017,7.245 -17.982,8.05 c -4.356,13.446 -1.438,42.45 -1.408,42.743 0.035,0.334 -0.129,0.657 -0.415,0.829 -0.285,0.172 -0.647,0.163 -0.924,-0.021 -5.197,-3.471 -17.073,-17.528 -21.333,-22.664 l 0,1.794 c 0,0.476 -0.387,0.863 -0.863,0.863 -0.475,0 -0.863,-0.387 -0.863,-0.863 l 0,-4.202 c 0,-0.365 0.23,-0.694 0.574,-0.813 0.341,-0.126 0.729,-0.018 0.959,0.267 0.153,0.184 14.094,17.264 20.961,23.016 -0.599,-6.941 -2.215,-30.123 1.8,-41.877 0.076,-0.233 0.255,-0.424 0.485,-0.519 C -18.897,6.557 -7.82,1.962 -0.216,0.027 -0.145,0.009 -0.071,0 0,0"
             style="fill:#211c1d;fill-opacity:1;fill-rule:nonzero;stroke:none"
             id="path3429" /></g><g
           id="g3431"
           transform="translate(97.9541,97.1758)"><path
             d="m 0,0 0.006,0 c 13.358,0.111 25.664,11.93 26.195,12.424 0.176,0.163 0.275,0.39 0.275,0.63 0.094,21.115 7.161,40.532 8.943,45.095 12.859,-9.699 14.824,-31.91 14.844,-32.141 0.033,-0.38 0.312,-0.696 0.687,-0.773 0.378,-0.081 0.758,0.101 0.937,0.442 l 2.746,5.187 c 0.223,0.421 0.06,0.943 -0.36,1.168 -0.423,0.221 -0.946,0.061 -1.167,-0.36 l -1.459,-2.755 c -0.983,6.641 -4.551,23.379 -16.129,31.29 -0.216,0.145 -0.486,0.188 -0.732,0.114 C 34.537,60.247 34.335,60.07 34.233,59.83 34.142,59.612 24.951,37.698 24.752,13.444 22.848,11.764 11.634,1.824 -0.006,1.727 -0.485,1.723 -0.869,1.333 -0.863,0.857 -0.859,0.384 -0.473,0 0,0"
             style="fill:#211c1d;fill-opacity:1;fill-rule:nonzero;stroke:none"
             id="path3433" /></g><g
           id="g3435"
           transform="translate(49.0054,97.3389)"><path
             d="m 0,0 c 13.213,0 35.988,12.694 36.885,13.231 0.182,0.108 0.314,0.277 0.378,0.477 3.719,11.453 21.413,33.041 24.082,36.259 14.668,-3.452 34.737,-19.376 34.943,-19.536 0.251,-0.202 0.592,-0.245 0.886,-0.117 l 3.8,1.684 c 0.436,0.193 0.632,0.703 0.439,1.139 -0.194,0.436 -0.7,0.635 -1.14,0.439 L 96.951,32.104 C 93.874,34.516 75.313,48.706 61.204,51.771 60.885,51.838 60.562,51.727 60.359,51.482 59.523,50.493 40.051,27.28 35.725,14.553 33.171,13.063 11.953,1.726 0,1.726 -0.476,1.726 -0.863,1.339 -0.863,0.863 -0.863,0.387 -0.476,0 0,0"
             style="fill:#211c1d;fill-opacity:1;fill-rule:nonzero;stroke:none"
             id="path3437" /></g><g
           id="g3439"
           transform="translate(161.0723,111.8115)"><path
             d="m 0,0 c 0.111,0 0.219,0.036 0.305,0.113 0.199,0.166 0.223,0.464 0.057,0.664 -0.067,0.074 -1.627,1.898 -4.259,2.963 -0.36,0.145 -0.605,0.397 -0.755,0.772 -0.547,1.345 0.3,3.851 0.673,4.701 C -3.875,9.454 -3.982,9.73 -4.22,9.834 -4.463,9.936 -4.735,9.831 -4.84,9.595 -4.901,9.454 -6.333,6.143 -5.524,4.159 -5.276,3.544 -4.85,3.111 -4.25,2.868 -1.833,1.889 -0.371,0.185 -0.359,0.169 -0.264,0.059 -0.132,0 0,0"
             style="fill:#211c1d;fill-opacity:1;fill-rule:nonzero;stroke:none"
             id="path3441" /></g><g
           id="g3443"
           transform="translate(166.6162,114.5078)"><path
             d="M 0,0 C 0.206,0 0.394,0.136 0.451,0.345 0.525,0.593 0.378,0.854 0.129,0.925 0.031,0.949 -2.281,1.592 -5.062,1.005 -5.439,0.922 -5.783,0.995 -6.117,1.22 -7.322,2.027 -8.019,4.579 -8.185,5.498 -8.234,5.753 -8.458,5.919 -8.731,5.875 -8.99,5.829 -9.158,5.584 -9.112,5.329 -9.085,5.178 -8.425,1.634 -6.643,0.439 -6.097,0.071 -5.497,-0.049 -4.865,0.083 -2.31,0.627 -0.147,0.024 -0.129,0.019 -0.083,0.007 -0.043,0 0,0"
             style="fill:#211c1d;fill-opacity:1;fill-rule:nonzero;stroke:none"
             id="path3445" /></g><g
           id="g3447"
           transform="translate(173.9492,87.0801)"><path
             d="m 0,0 c 0,-6.627 -5.373,-12 -12,-12 -6.628,0 -12,5.373 -12,12 0,6.628 5.372,12 12,12 C -5.373,12 0,6.628 0,0"
             style="fill:#eb513e;fill-opacity:1;fill-rule:nonzero;stroke:none"
             id="path3449" /></g><g
           id="g3451"
           transform="translate(173.9492,87.0801)"><path
             d="m 0,0 c 0,-6.627 -5.373,-12 -12,-12 -6.628,0 -12,5.373 -12,12 0,6.628 5.372,12 12,12 C -5.373,12 0,6.628 0,0 z"
             style="fill:none;stroke:#211c1d;stroke-opacity:1;stroke-width:2.5;stroke-linecap:butt;stroke-linejoin:miter;stroke-miterlimit:10;stroke-dasharray:none"
             id="path3453" /></g><path
           d="m 161.949,94.009 -2,0 0,2 2,0 0,-2 z"
           style="fill:#ffffff;fill-opacity:1;fill-rule:nonzero;stroke:none"
           id="path3455" /><path
           d="m 161.949,90.009 -2,0 0,2 2,0 0,-2 z"
           style="fill:#ffffff;fill-opacity:1;fill-rule:nonzero;stroke:none"
           id="path3457" /><path
           d="m 163.949,92.009 -2,0 0,2 2,0 0,-2 z"
           style="fill:#ffffff;fill-opacity:1;fill-rule:nonzero;stroke:none"
           id="path3459" /><path
           d="m 167.949,90.009 -2,0 0,2 2,0 0,-2 z"
           style="fill:#ffffff;fill-opacity:1;fill-rule:nonzero;stroke:none"
           id="path3461" /><path
           d="m 165.949,86.009 -2,0 0,2 2,0 0,-2 z"
           style="fill:#ffffff;fill-opacity:1;fill-rule:nonzero;stroke:none"
           id="path3463" /><path
           d="m 157.949,82.009 -2,0 0,2 2,0 0,-2 z"
           style="fill:#ffffff;fill-opacity:1;fill-rule:nonzero;stroke:none"
           id="path3465" /><path
           d="m 167.949,84.009 -2,0 0,2 2,0 0,-2 z"
           style="fill:#ffffff;fill-opacity:1;fill-rule:nonzero;stroke:none"
           id="path3467" /><g
           id="g3469"
           transform="translate(100.4004,96.9336)" /></g></g></g></svg>